<svg enable-background="new 0 0 1010 846.4933" viewBox="0 0 1010 846.4933" xmlns="http://www.w3.org/2000/svg"><g fill="#37474f"><path d="m995.5197 633.9287h-981.039c-7.9956 0-14.4807-6.4708-14.4807-14.4803 0-7.9817 6.4851-14.4803 14.4807-14.4803h981.039c8.0095 0 14.4803 6.4986 14.4803 14.4803 0 8.0095-6.4708 14.4803-14.4803 14.4803z"/><path d="m815.6505 748.3925h-621.3153c-7.996 0-14.4811-6.4847-14.4811-14.4812 0-7.9957 6.4851-14.4803 14.4811-14.4803h621.3154c8.0103 0 14.4951 6.4847 14.4951 14.4803-.0001 7.9964-6.4849 14.4812-14.4952 14.4812z"/><path d="m619.4627 846.4933h-212.5638c-7.9956 0-14.4807-6.4855-14.4807-14.4803 0-7.9965 6.4851-14.4813 14.4807-14.4813h212.5638c7.9964 0 14.4803 6.4847 14.4803 14.4813 0 7.9948-6.4839 14.4803-14.4803 14.4803z"/></g><path d="m181.5359 547.0164c0-179.4907 145.4768-324.9743 324.9601-324.9743 179.4697 0 324.9607 145.4836 324.9607 324.9743" fill="#ffca72"/><path d="m831.4567 561.4976c-8.0103 0-14.4811-6.4995-14.4811-14.4812 0-171.2098-139.2764-310.494-310.4796-310.494-171.2024 0-310.4792 139.2842-310.4792 310.494 0 7.9817-6.4851 14.4812-14.4808 14.4812-7.9956 0-14.4803-6.4995-14.4803-14.4812 0-187.1797 152.2749-339.4551 339.4404-339.4551 187.1658 0 339.442 152.2753 339.442 339.4551-.0001 7.9816-6.4857 14.4812-14.4814 14.4812z" fill="#37474f"/><path d="m14.4807 537.6948h98.1009" fill="#ffca72"/><path d="m112.5816 552.176h-98.1009c-7.9956 0-14.4807-6.4709-14.4807-14.4812 0-7.981 6.4851-14.4804 14.4807-14.4804h98.1009c8.0103 0 14.4951 6.4995 14.4951 14.4804 0 8.0103-6.4848 14.4812-14.4951 14.4812z" fill="#37474f"/><path d="m153.1449 133.9322 93.1123 93.1266" fill="#ffca72"/><path d="m246.2572 241.5396c-3.7056 0-7.3969-1.411-10.2334-4.2401l-93.127-93.127c-5.6581-5.6581-5.6581-14.8228 0-20.4809 5.6585-5.6585 14.8233-5.6585 20.4814 0l93.127 93.1266c5.6581 5.6585 5.6581 14.8229 0 20.4814-2.8367 2.8289-6.5419 4.24-10.248 4.24z" fill="#37474f"/><path d="m995.5197 537.6948h-81.7536" fill="#ffca72"/><path d="m995.5197 552.176h-81.7536c-8.0104 0-14.4804-6.4708-14.4804-14.4811 0-7.981 6.47-14.4804 14.4804-14.4804h81.7536c8.0095 0 14.4803 6.4995 14.4803 14.4804 0 8.0102-6.4708 14.4811-14.4803 14.4811z" fill="#37474f"/><path d="m859.8339 133.9322-93.1271 93.1266" fill="#ffca72"/><path d="m766.7068 241.5396c-3.7061 0-7.4113-1.411-10.2333-4.2401-5.6581-5.6584-5.6581-14.8228 0-20.4814l93.127-93.1266c5.6581-5.6585 14.8224-5.6585 20.4805 0 5.6589 5.6581 5.6589 14.8228 0 20.4809l-93.127 93.127c-2.835 2.8291-6.5411 4.2402-10.2472 4.2402z" fill="#37474f"/><path d="m504.9998 14.4803v114.449" fill="#ffca72"/><path d="m504.9998 143.4101c-7.9956 0-14.4807-6.4778-14.4807-14.4808v-114.449c0-7.9956 6.4851-14.4803 14.4807-14.4803 7.9964 0 14.4803 6.4847 14.4803 14.4803v114.449c0 8.003-6.4839 14.4808-14.4803 14.4808z" fill="#37474f"/></svg>